<?xml version="1.0" standalone="no"?>
<!DOCTYPE svg PUBLIC "-//W3C//DTD SVG 20010904//EN"
 "http://www.w3.org/TR/2001/REC-SVG-20010904/DTD/svg10.dtd">
<svg version="1.0" xmlns="http://www.w3.org/2000/svg"
 width="398.000000pt" height="398.000000pt" viewBox="0 0 398.000000 398.000000"
 preserveAspectRatio="xMidYMid meet">
<metadata>
Created by potrace 1.11, written by Peter Selinger 2001-2013
</metadata>
<g transform="translate(0.000000,398.000000) scale(0.100000,-0.100000)"
fill="#000000" stroke="none">
<path d="M1725 3475 c-136 -36 -229 -90 -317 -183 -62 -64 -97 -127 -123 -217
-22 -74 -15 -223 15 -335 11 -41 20 -76 20 -77 0 -2 -15 -3 -34 -3 -26 0 -40
-7 -56 -27 -19 -24 -21 -37 -18 -93 7 -96 41 -174 107 -243 32 -34 67 -61 83
-64 23 -4 30 -15 48 -67 36 -109 83 -175 158 -222 2 -2 -11 -23 -30 -48 -30
-41 -39 -46 -113 -66 -109 -28 -139 -43 -169 -83 -31 -41 -40 -86 -62 -322 -9
-99 -18 -182 -20 -184 -2 -3 -9 0 -14 5 -7 7 -49 -1 -127 -23 -64 -19 -119
-36 -121 -38 -2 -2 1 -18 7 -36 20 -57 16 -59 -68 -27 l-79 30 -69 -48 c-37
-26 -72 -50 -76 -54 -4 -4 6 -71 23 -150 16 -79 30 -144 30 -145 0 -2 9 -5 20
-8 17 -4 20 0 21 31 l1 37 14 -34 c8 -18 17 -32 18 -30 2 2 -7 58 -20 124 -32
161 -32 156 21 185 24 13 46 22 49 19 3 -2 21 -81 41 -174 20 -94 38 -176 40
-183 7 -18 165 67 165 89 0 8 -16 79 -35 158 -19 78 -35 148 -35 156 0 11 65
36 125 48 5 1 13 -14 17 -33 4 -19 48 -211 98 -427 49 -215 90 -395 90 -400 0
-4 -24 -25 -54 -45 l-53 -37 -11 32 c-5 18 -10 25 -11 17 -1 -11 -13 -16 -41
-16 -35 -1 -38 1 -30 17 15 28 13 29 -37 23 -45 -5 -47 -4 -29 10 11 9 26 16
33 16 22 0 40 23 35 42 -5 21 8 24 26 6 6 -6 14 -9 18 -6 10 11 -68 269 -80
265 -6 -2 -41 -15 -78 -28 -44 -15 -68 -29 -68 -39 0 -8 18 -89 39 -180 22
-91 37 -168 35 -171 -10 -16 -117 -70 -124 -62 -4 4 -27 109 -50 233 -23 124
-47 233 -52 244 -11 20 -23 12 -31 -19 -3 -11 -5 -4 -6 17 -1 41 -13 55 -29
35 -8 -10 5 -97 49 -323 34 -170 62 -310 63 -312 2 -1 71 29 155 68 83 38 155
70 160 70 5 0 15 -15 22 -34 l14 -34 125 70 c69 39 206 113 305 165 l180 95
170 -16 c283 -28 275 -27 275 -47 0 -19 3 -20 155 -45 92 -15 110 -22 230 -88
154 -86 191 -100 270 -99 90 0 163 33 242 106 79 74 131 149 188 271 121 256
117 484 -11 625 -61 69 -102 84 -206 79 -48 -2 -84 -1 -78 2 5 3 11 57 14 120
2 63 9 173 17 245 12 122 14 131 41 153 15 13 40 50 55 83 23 50 39 68 96 110
73 53 86 71 67 94 -18 21 -49 18 -95 -10 -59 -37 -62 -31 -12 28 58 68 68 88
56 110 -19 33 -58 20 -111 -38 -28 -31 -52 -54 -55 -52 -2 2 10 42 27 88 35
95 31 129 -15 129 -30 0 -45 -22 -82 -120 -26 -70 -28 -73 -34 -45 -4 17 -7
53 -8 82 -2 77 -14 103 -50 103 -40 0 -51 -23 -44 -92 6 -63 -3 -176 -17 -198
-7 -12 -16 -8 -43 22 -39 42 -80 62 -114 53 -34 -8 -29 -45 12 -85 22 -21 40
-52 50 -86 8 -29 30 -73 49 -97 l34 -44 -32 -64 c-17 -35 -46 -101 -65 -147
-18 -47 -38 -81 -44 -79 -7 2 -56 62 -109 133 -114 151 -140 175 -222 205 -53
19 -67 29 -102 79 l-41 57 68 61 c92 84 119 140 126 264 5 90 7 95 34 110 89
51 136 310 73 405 -21 32 -62 47 -92 34 -12 -6 -25 -11 -27 -11 -3 0 -5 40 -5
89 0 299 -145 496 -416 565 -76 20 -249 20 -319 1z m317 -40 c134 -33 259
-125 316 -234 43 -79 62 -167 62 -284 l0 -98 -47 1 c-99 2 -328 -37 -384 -66
-14 -7 -31 -19 -38 -27 -20 -25 -76 -30 -113 -11 -27 14 -51 16 -148 11 -63
-4 -155 -16 -205 -28 -135 -32 -126 -35 -147 46 -29 108 -35 251 -13 330 62
229 324 397 590 378 39 -2 96 -11 127 -18z m521 -675 c14 -27 17 -54 15 -121
-3 -74 -8 -94 -37 -152 -33 -65 -61 -87 -61 -48 0 10 10 31 22 47 14 18 16 24
5 15 -18 -14 -17 -22 -21 154 -1 38 17 35 31 -5 9 -27 12 -30 12 -12 1 13 -6
37 -15 54 -15 29 -14 31 7 54 13 14 17 24 10 24 -7 0 -21 -10 -32 -22 l-18
-23 -1 31 c0 38 7 46 40 42 17 -2 31 -14 43 -38z m-192 -9 c21 -17 24 -28 24
-86 0 -59 -3 -68 -25 -85 -33 -25 -97 -41 -190 -47 -89 -6 -123 5 -145 47 -16
31 -16 31 5 20 16 -8 35 -9 71 -1 28 6 84 11 125 11 68 0 77 2 99 26 20 21 22
30 14 46 -15 28 -67 56 -119 65 l-45 8 45 6 c86 12 117 10 141 -10z m-198 -8
c-7 -2 -21 -2 -30 0 -10 3 -4 5 12 5 17 0 24 -2 18 -5z m141 -62 c28 -29 7
-51 -51 -51 -41 0 -43 1 -33 21 7 11 9 31 6 44 -6 22 -4 23 26 14 18 -5 41
-18 52 -28z m-149 19 c-3 -5 -12 -10 -20 -10 -8 0 -17 5 -20 10 -4 6 5 10 20
10 15 0 24 -4 20 -10z m-135 -7 c0 -5 -5 -15 -10 -23 -8 -12 -10 -11 -10 8 0
12 5 22 10 22 6 0 10 -3 10 -7z m70 -14 c0 -11 4 -29 10 -39 8 -15 5 -19 -16
-24 -32 -8 -64 1 -64 18 0 20 39 66 56 66 8 0 14 -9 14 -21z m-427 -6 c-7 -2
-21 -2 -30 0 -10 3 -4 5 12 5 17 0 24 -2 18 -5z m-98 -19 c-76 -28 -120 -91
-88 -126 20 -22 19 -22 194 10 53 9 104 23 113 31 14 12 16 10 16 -13 0 -36
-38 -72 -90 -86 -59 -16 -168 -26 -210 -20 -42 6 -74 49 -84 111 -6 35 -3 46
13 62 21 22 99 46 146 46 29 0 29 -1 -10 -15z m235 -16 c0 -6 -7 -5 -15 2 -8
7 -15 17 -15 22 0 6 7 5 15 -2 8 -7 15 -17 15 -22z m-43 -10 c23 -22 29 -43
15 -52 -4 -2 -24 -7 -46 -11 -37 -7 -38 -7 -26 15 6 12 9 33 6 46 -8 31 19 33
51 2z m-117 2 c0 -5 -9 -10 -20 -10 -11 0 -20 5 -20 10 0 6 9 10 20 10 11 0
20 -4 20 -10z m-333 -12 c6 -7 13 -23 16 -36 l5 -23 -34 22 c-39 24 -46 16
-10 -12 21 -16 23 -24 16 -49 -7 -24 3 -100 13 -100 2 0 3 21 2 48 0 53 16 69
27 25 4 -15 14 -55 22 -89 20 -77 20 -77 -6 -64 -20 9 -21 9 -5 -2 39 -27 45
-34 52 -55 9 -30 -6 -29 -45 3 -66 56 -130 187 -130 266 0 59 50 101 77 66z
m643 -6 c15 -12 26 -39 35 -91 16 -80 32 -114 21 -43 l-6 43 25 -17 c53 -35
346 4 384 50 7 8 16 27 21 43 6 21 8 7 9 -53 1 -88 -26 -201 -54 -224 -8 -7
-15 -9 -15 -4 0 5 -10 -6 -22 -24 -15 -25 -23 -30 -29 -20 -7 10 -9 10 -9 -2
-1 -39 -17 -41 -52 -6 -44 44 -80 46 -208 15 -47 -11 -139 -24 -205 -28 -144
-10 -175 -23 -199 -82 -16 -39 -18 -40 -35 -25 -10 9 -25 16 -33 16 -9 0 -21
7 -28 15 -7 8 -18 15 -25 15 -28 0 -76 76 -105 168 -33 100 -38 133 -14 90 22
-41 78 -53 186 -39 101 13 210 45 228 66 7 8 17 41 24 72 9 45 16 60 36 70 33
17 44 16 70 -5z m-380 -17 c0 -14 9 -30 20 -37 19 -12 16 -14 -27 -25 -75 -19
-98 14 -42 61 38 32 49 33 49 1z m1412 -361 c4 -21 7 -67 7 -101 2 -141 41
-120 105 57 24 66 33 77 47 63 14 -14 12 -20 -37 -156 -22 -62 -25 -80 -15
-90 10 -10 27 4 86 68 58 63 76 77 86 68 9 -9 -1 -27 -47 -83 -88 -106 -89
-109 -71 -116 9 -3 48 12 90 35 82 45 87 47 87 28 0 -8 -31 -35 -69 -61 -59
-40 -72 -54 -91 -101 -20 -50 -60 -96 -116 -133 -13 -9 -15 -14 -6 -18 15 -7
16 -70 1 -187 -10 -74 -14 -88 -28 -83 -74 24 -160 46 -183 46 -16 0 -28 4
-28 10 0 12 65 171 91 223 11 20 26 37 34 37 21 0 19 14 -5 35 -33 30 -79 109
-95 163 -10 33 -27 60 -50 81 -41 36 -43 41 -11 41 21 0 111 -60 90 -60 -5 0
12 -13 37 -29 53 -33 89 -75 89 -102 0 -11 5 -19 10 -19 28 0 -4 76 -46 109
-24 19 -25 23 -14 55 6 19 11 83 11 142 0 60 3 112 6 117 11 18 28 -1 35 -39z
m-822 -18 c-8 -8 -46 -24 -85 -36 -81 -26 -298 -41 -318 -21 -8 8 -14 8 -24 0
-24 -21 -14 -26 60 -32 100 -7 215 7 320 40 72 23 87 31 83 46 -6 23 11 22 24
-2 16 -32 12 -55 -19 -98 -34 -47 -98 -77 -142 -68 -35 8 -47 24 -28 36 9 7 0
8 -26 4 -75 -11 -83 -15 -81 -32 1 -20 -39 -43 -77 -43 -63 0 -147 65 -147
115 0 42 24 50 174 57 100 4 159 12 201 26 33 11 69 21 80 21 17 1 17 -1 5
-13z m-467 -318 c24 -12 36 -23 29 -26 -8 -2 -19 1 -25 7 -6 6 -16 11 -21 11
-6 -1 -1 -9 11 -19 26 -22 172 -85 180 -78 2 3 -6 8 -18 12 -63 20 -91 37 -81
47 8 8 29 1 73 -22 51 -26 74 -32 124 -32 72 1 127 14 173 42 25 15 32 17 32
6 0 -8 7 -22 16 -31 16 -15 15 -19 -7 -58 -18 -33 -24 -63 -29 -142 l-6 -100
-15 35 c-9 19 -24 60 -34 90 -9 30 -27 65 -38 77 -18 20 -165 78 -174 69 -3
-2 29 -15 69 -29 58 -20 67 -26 42 -26 -33 -1 -89 -38 -138 -89 -34 -37 -26
-41 -160 82 -122 112 -125 117 -91 162 14 19 30 34 36 34 5 0 29 -10 52 -22z
m602 -32 c26 -42 31 -62 36 -140 3 -50 5 -92 5 -93 -1 -1 -21 23 -44 53 -36
47 -46 54 -74 53 l-33 -2 32 -6 c24 -4 45 -22 80 -65 58 -72 76 -82 62 -34 -5
18 -9 63 -9 100 0 79 2 80 81 44 58 -26 82 -49 150 -141 24 -33 68 -91 98
-129 l54 -69 -27 -54 c-14 -29 -26 -63 -26 -74 0 -11 -6 -30 -14 -42 -22 -34
-29 -138 -12 -162 13 -18 15 -13 21 50 4 39 14 81 24 95 9 14 18 34 21 45 5
15 17 21 55 26 l50 6 -47 1 c-27 1 -48 6 -48 11 0 4 10 32 22 60 l21 52 51 -6
c28 -4 87 -19 130 -33 l80 -27 -3 -60 c-1 -33 -4 -62 -6 -63 -2 -2 -33 8 -69
22 -36 15 -80 29 -98 32 -18 2 2 -7 44 -21 62 -21 81 -32 93 -54 11 -23 12
-31 2 -39 -19 -16 -298 -152 -311 -152 -7 0 -27 15 -45 34 l-34 35 12 83 c7
46 14 97 17 115 6 34 7 34 -98 48 l-48 6 0 53 c0 30 -6 60 -15 72 -13 17 -14
13 -15 -48 0 -58 -3 -68 -17 -68 -16 0 -132 -177 -257 -392 -16 -27 -31 -46
-34 -43 -3 3 -8 94 -11 203 l-6 197 -27 3 c-35 4 -36 -13 -7 -71 l22 -42 -22
19 c-11 11 -23 17 -25 15 -5 -6 -28 -640 -23 -645 2 -3 44 -11 93 -20 49 -9
90 -16 91 -18 3 -3 -13 -116 -18 -119 -2 -2 -75 3 -161 11 l-157 15 -3 101
c-2 56 -4 250 -3 431 l0 330 30 3 c17 1 41 5 55 8 22 5 20 8 -28 36 -42 24
-60 29 -87 24 l-35 -7 0 -79 c0 -44 -3 -80 -7 -80 -5 1 -30 49 -58 107 -27 58
-55 108 -62 110 -7 3 -110 -28 -228 -67 -119 -40 -218 -70 -219 -69 -7 7 24
314 34 345 16 48 62 86 113 91 51 6 92 -12 130 -57 14 -16 33 -30 42 -30 14 0
14 3 0 29 -8 16 -31 43 -51 59 l-36 30 34 5 c27 4 39 -1 68 -27 19 -18 60 -52
90 -76 30 -24 74 -61 96 -83 l42 -39 46 50 c49 52 88 75 143 85 42 8 50 -4 99
-143 20 -58 40 -109 44 -113 4 -5 9 49 12 120 l4 130 42 69 c23 39 42 77 41
85 0 8 -5 4 -11 -8 -6 -13 -14 -23 -18 -23 -14 0 -21 52 -9 66 21 26 52 11 84
-40z m-605 -541 c7 -36 11 -67 9 -69 -2 -2 -61 -22 -131 -45 -145 -48 -137
-38 -118 -155 11 -68 13 -71 37 -62 17 7 17 8 1 17 -10 6 -18 20 -18 32 1 21
2 21 26 -7 24 -27 27 -28 65 -17 47 14 59 9 59 -28 0 -36 9 -44 27 -26 16 17
43 20 43 6 0 -5 -15 -21 -32 -36 -37 -28 -37 -26 33 -78 19 -15 20 -17 4 -12
-11 4 -35 9 -52 12 -28 5 -33 3 -33 -14 0 -10 5 -24 12 -31 9 -9 8 -12 -5 -12
-9 0 -18 5 -18 10 -1 6 -3 15 -4 20 -1 6 -3 15 -4 21 -1 13 -26 6 -26 -7 -1
-5 -8 -22 -17 -39 -15 -27 -17 -28 -24 -11 -4 12 -2 30 8 45 8 15 13 32 11 38
-5 14 -43 5 -43 -11 0 -18 48 -287 52 -291 3 -3 177 30 211 41 15 5 17 -2 17
-54 l0 -59 -166 -47 c-92 -25 -169 -44 -172 -42 -2 3 -20 94 -39 203 -80 468
-111 658 -109 661 3 2 366 110 377 111 4 1 12 -28 19 -64z m860 -40 c3 -2 -4
-100 -16 -217 -13 -117 -23 -229 -23 -248 0 -31 1 -32 9 -12 14 34 34 28 26
-9 -5 -24 -3 -30 8 -26 8 3 31 9 52 13 48 9 39 -7 -18 -31 -24 -11 -44 -20
-46 -21 -2 -1 2 -11 9 -23 15 -23 5 -41 -13 -23 -23 23 -36 12 -42 -35 -4 -27
-9 -65 -12 -86 l-6 -38 97 -45 97 -45 -7 -42 c-4 -23 -10 -45 -14 -49 -5 -6
-296 59 -310 69 -3 2 22 191 44 343 13 85 75 526 75 533 0 8 75 0 90 -8z m700
-183 c65 -32 89 -73 97 -162 3 -33 9 -60 12 -60 4 0 16 7 27 15 36 28 38 15 2
-22 -37 -39 -57 -106 -36 -119 7 -4 5 -10 -4 -15 -23 -13 -42 -92 -29 -117 15
-29 14 -37 -4 -22 -19 16 -16 19 -55 -60 -122 -246 -289 -378 -412 -327 -47
20 -70 64 -76 149 -11 151 43 436 108 575 28 62 105 154 145 175 61 34 143 30
225 -10z m-611 -75 c-2 -3 -13 -7 -25 -11 -18 -6 -20 -3 -16 25 l5 31 20 -21
c12 -11 19 -22 16 -24z m-969 -117 c0 -5 -2 -10 -4 -10 -3 0 -8 5 -11 10 -3 6
-1 10 4 10 6 0 11 -4 11 -10z"/>
<path d="M2085 2889 c-72 -25 -105 -43 -111 -61 -10 -33 4 -33 84 -5 102 36
165 43 222 23 24 -8 46 -14 48 -12 2 2 -13 17 -34 32 -32 25 -48 29 -108 31
-39 1 -84 -2 -101 -8z"/>
<path d="M1584 2821 c-47 -12 -97 -46 -116 -79 -24 -41 -22 -50 5 -25 54 50
85 58 210 56 91 -1 117 1 117 11 0 27 -32 39 -108 42 -42 2 -91 -1 -108 -5z"/>
<path d="M2063 2369 c2 -32 0 -34 -31 -37 -18 -2 -36 -10 -39 -18 -11 -30 -42
-36 -71 -16 -18 13 -37 18 -59 15 -31 -5 -33 -3 -34 23 -2 25 -2 26 -6 6 -6
-33 15 -54 47 -47 18 4 31 1 40 -10 19 -23 66 -19 88 9 10 13 32 26 48 28 24
2 30 8 32 32 2 16 -1 33 -6 38 -7 7 -10 -1 -9 -23z"/>
<path d="M2078 1453 c-19 -5 -26 -53 -9 -53 16 0 70 34 76 48 4 12 -30 15 -67
5z"/>
<path d="M1985 1440 l-40 -5 33 -18 c36 -20 62 -17 62 7 0 20 -9 23 -55 16z"/>
<path d="M2173 1395 c0 -22 2 -30 4 -17 2 12 2 30 0 40 -3 9 -5 -1 -4 -23z"/>
<path d="M2110 1385 c-10 -12 -9 -16 3 -21 20 -7 37 3 37 22 0 18 -24 18 -40
-1z"/>
<path d="M2182 1300 c0 -19 2 -27 5 -17 2 9 2 25 0 35 -3 9 -5 1 -5 -18z"/>
<path d="M2193 1155 c0 -22 2 -30 4 -17 2 12 2 30 0 40 -3 9 -5 -1 -4 -23z"/>
<path d="M3081 973 c-63 -32 -105 -123 -147 -321 -40 -186 -31 -272 29 -272
38 0 130 109 166 195 48 115 47 109 26 102 -17 -7 -17 -6 0 19 15 23 15 26 2
21 -9 -3 -33 -9 -54 -12 -37 -6 -37 -6 20 26 l58 32 -72 38 c-100 53 -107 65
-19 33 51 -18 75 -23 78 -15 3 9 8 9 17 1 18 -15 25 -1 32 63 4 46 2 55 -19
74 -33 31 -76 37 -117 16z"/>
<path d="M730 704 c0 -8 5 -12 10 -9 6 4 8 11 5 16 -9 14 -15 11 -15 -7z"/>
</g>
</svg>
